<?xml version="1.0" encoding="UTF-8"?>
<svg id="logosandtypes_com" data-name="logosandtypes com" xmlns="http://www.w3.org/2000/svg" viewBox="0 0 150 150">
  <defs>
    <style>
      .cls-1 {
        fill: #191521;
      }

      .cls-2 {
        fill: none;
      }
    </style>
  </defs>
  <g id="Layer_2" data-name="Layer 2">
    <path id="Layer_3" data-name="Layer 3" class="cls-2" d="M0,0H150V150H0V0Z"/>
  </g>
  <path class="cls-1" d="M21.02,12.48h0c-5,0-9.05,4.05-9.05,9.05v107.33c0,5,4.05,9.05,9.05,9.05h0c5,0,9.05-4.05,9.05-9.05V21.53c0-5-4.05-9.05-9.05-9.05Z"/>
  <path class="cls-1" d="M75.41,32.99c-5,0-9.05,4.05-9.05,9.05V107.5c0,5,4.05,9.05,9.05,9.05s9.05-4.05,9.05-9.05V42.05c0-5-4.04-9.06-9.04-9.07,0,0-.01,0-.02,0Z"/>
  <path class="cls-1" d="M48.21,69.93h0c-5,0-9.05,4.05-9.05,9.05v37.31c0,5,4.05,9.05,9.05,9.05h0c5,0,9.05-4.05,9.05-9.05v-37.31c0-5-4.05-9.05-9.05-9.05Z"/>
  <path class="cls-1" d="M129.78,12.48c-5,0-9.05,4.05-9.05,9.05v107.33c0,5,4.06,9.05,9.06,9.05,4.99,0,9.04-4.05,9.05-9.05V21.53c0-5-4.05-9.05-9.05-9.05Z"/>
  <path class="cls-1" d="M102.59,69.93c-5,0-9.05,4.05-9.05,9.05v37.31c0,5,4.05,9.05,9.05,9.05s9.05-4.05,9.05-9.05v-37.31c0-5-4.05-9.05-9.05-9.05h0Z"/>
</svg>